<svg xmlns="http://www.w3.org/2000/svg" viewBox="0 0 407.22 281.05"><defs><style>.cls-1{fill:#df686b;}.cls-2{fill:#6fb042;}</style></defs><g id="Camada_2" data-name="Camada 2"><g id="Camada_5" data-name="Camada 5"><path class="cls-1" d="M89,58.07q0,9.06-4.83,14.37T70.8,77.74H58.71V178.42H30.3V77.76H0q0-9.14,4.83-14.41t13.38-5.28Z"/><path class="cls-1" d="M153,153q0,11.4-6.71,18.38c-4.48,4.66-11,7-19.52,7H106.52c-8.54,0-15-2.33-19.52-7S80.29,160.6,80.29,153V114.68q0-11.42,6.71-18.39t19.52-7h20.29c8.55,0,15,2.33,19.53,7s6.71,10.78,6.71,18.39V153Zm-28.31-39.19c0-3.37-.72-5.92-2.18-7.66a7.3,7.3,0,0,0-5.87-2.6,7.22,7.22,0,0,0-5.87,2.6c-1.47,1.74-2.18,4.29-2.18,7.66V153a13.52,13.52,0,0,0,2.18,8.1,7.17,7.17,0,0,0,11.74,0,13.59,13.59,0,0,0,2.18-8.1Z"/><path class="cls-1" d="M292,58.07c8.54,0,15,2.33,19.52,7s6.71,10.78,6.71,18.38V153q0,11.4-6.71,18.38c-4.49,4.66-11,7-19.52,7H238.54V58.07ZM290,149.51V86a15.55,15.55,0,0,0-3.05-9.84,10.14,10.14,0,0,0-8.45-3.91H266.86v91.88h11.59a9.77,9.77,0,0,0,8.45-4.36A17.78,17.78,0,0,0,290,149.51Z"/><path class="cls-1" d="M407.17,153q0,11.4-6.71,18.38c-4.49,4.66-11,7-19.52,7H360.65c-8.55,0-15-2.33-19.52-7s-6.72-10.78-6.72-18.38V114.68q0-11.42,6.72-18.39t19.52-7h20.29c8.54,0,15,2.33,19.52,7s6.71,10.78,6.71,18.39Zm-28.31-39.19c0-3.37-.72-5.92-2.18-7.66a7.94,7.94,0,0,0-11.75,0c-1.46,1.74-2.18,4.29-2.18,7.66V153a13.59,13.59,0,0,0,2.18,8.1,7.18,7.18,0,0,0,11.75,0,13.59,13.59,0,0,0,2.18-8.1Z"/><path class="cls-1" d="M107.47,193.23H5.9v17.34H107.47Z"/><path class="cls-1" d="M407.22,24.77H219V42.11H407.22Z"/><path class="cls-2" d="M246.2,0l-9.07,44.59L215.6,146.16,187,281.05l-18.38-.37-1.06-.22-.72-.72L85.24,193.23h22.23L169.4,240.3l22.74-96.62L216.47,28.84a14.15,14.15,0,0,1,3.09-6.25Z"/></g></g></svg>